<mxfile host="app.diagrams.net" modified="2022-02-16T21:28:36.139Z" agent="5.0 (Windows NT 10.0; Win64; x64) AppleWebKit/537.36 (KHTML, like Gecko) Chrome/97.0.4692.99 Safari/537.36 OPR/83.0.4254.46" etag="5MgXL7y80wGxj2kJsfv7" version="16.5.6" type="github">
  <diagram id="siKMfNoxnN-b2ZkhVVGE" name="Page-1">
    <mxGraphModel dx="2849" dy="1543" grid="1" gridSize="10" guides="1" tooltips="1" connect="1" arrows="1" fold="1" page="1" pageScale="1" pageWidth="1200" pageHeight="1600" math="0" shadow="0">
      <root>
        <mxCell id="0" />
        <mxCell id="1" parent="0" />
        <mxCell id="6TStXJAQ2lw-C9cObx5x-1" style="edgeStyle=orthogonalEdgeStyle;rounded=0;orthogonalLoop=1;jettySize=auto;html=1;entryX=0;entryY=0.5;entryDx=0;entryDy=0;strokeWidth=10;" edge="1" parent="1" source="ysnT-oL3roo8hydh4SDA-1" target="ysnT-oL3roo8hydh4SDA-2">
          <mxGeometry relative="1" as="geometry" />
        </mxCell>
        <mxCell id="6TStXJAQ2lw-C9cObx5x-4" style="edgeStyle=orthogonalEdgeStyle;rounded=0;orthogonalLoop=1;jettySize=auto;html=1;entryX=0.5;entryY=0;entryDx=0;entryDy=0;strokeWidth=10;" edge="1" parent="1" source="ysnT-oL3roo8hydh4SDA-1" target="ysnT-oL3roo8hydh4SDA-3">
          <mxGeometry relative="1" as="geometry" />
        </mxCell>
        <mxCell id="6TStXJAQ2lw-C9cObx5x-5" style="edgeStyle=orthogonalEdgeStyle;rounded=0;orthogonalLoop=1;jettySize=auto;html=1;strokeWidth=10;" edge="1" parent="1" source="ysnT-oL3roo8hydh4SDA-1" target="ysnT-oL3roo8hydh4SDA-4">
          <mxGeometry relative="1" as="geometry">
            <Array as="points">
              <mxPoint x="490" y="940" />
              <mxPoint x="1020" y="940" />
            </Array>
          </mxGeometry>
        </mxCell>
        <mxCell id="ysnT-oL3roo8hydh4SDA-1" value="" style="whiteSpace=wrap;html=1;aspect=fixed;" parent="1" vertex="1">
          <mxGeometry x="110" y="160" width="760" height="760" as="geometry" />
        </mxCell>
        <mxCell id="ysnT-oL3roo8hydh4SDA-2" value="" style="whiteSpace=wrap;html=1;aspect=fixed;" parent="1" vertex="1">
          <mxGeometry x="1005" y="160" width="760" height="760" as="geometry" />
        </mxCell>
        <mxCell id="ysnT-oL3roo8hydh4SDA-3" value="" style="whiteSpace=wrap;html=1;aspect=fixed;" parent="1" vertex="1">
          <mxGeometry x="110" y="1020" width="760" height="760" as="geometry" />
        </mxCell>
        <mxCell id="ysnT-oL3roo8hydh4SDA-4" value="" style="whiteSpace=wrap;html=1;aspect=fixed;" parent="1" vertex="1">
          <mxGeometry x="950" y="1020" width="760" height="760" as="geometry" />
        </mxCell>
        <mxCell id="ysnT-oL3roo8hydh4SDA-5" value="&lt;font style=&quot;font-size: 60px&quot;&gt;Main Menu&lt;/font&gt;" style="text;html=1;strokeColor=none;fillColor=none;align=center;verticalAlign=middle;whiteSpace=wrap;rounded=0;fontSize=90;" parent="1" vertex="1">
          <mxGeometry x="205" y="80" width="570" height="30" as="geometry" />
        </mxCell>
        <mxCell id="ysnT-oL3roo8hydh4SDA-6" value="&lt;font style=&quot;font-size: 70px&quot;&gt;Singular Computer Menu&lt;/font&gt;" style="text;html=1;strokeColor=none;fillColor=none;align=center;verticalAlign=middle;whiteSpace=wrap;rounded=0;fontSize=90;" parent="1" vertex="1">
          <mxGeometry x="985" y="80" width="810" height="30" as="geometry" />
        </mxCell>
        <mxCell id="ysnT-oL3roo8hydh4SDA-7" value="&lt;font style=&quot;font-size: 60px&quot;&gt;Statistics of Network Page&lt;/font&gt;" style="text;html=1;strokeColor=none;fillColor=none;align=center;verticalAlign=middle;whiteSpace=wrap;rounded=0;fontSize=90;" parent="1" vertex="1">
          <mxGeometry x="950" y="950" width="960" height="30" as="geometry" />
        </mxCell>
        <mxCell id="ysnT-oL3roo8hydh4SDA-8" value="&lt;font style=&quot;font-size: 60px&quot;&gt;Help Page&lt;/font&gt;" style="text;html=1;strokeColor=none;fillColor=none;align=center;verticalAlign=middle;whiteSpace=wrap;rounded=0;fontSize=90;" parent="1" vertex="1">
          <mxGeometry x="480" y="950" width="410" height="30" as="geometry" />
        </mxCell>
      </root>
    </mxGraphModel>
  </diagram>
</mxfile>
